<?xml version="1.0" standalone="no"?><!DOCTYPE svg PUBLIC "-//W3C//DTD SVG 1.1//EN" "http://www.w3.org/Graphics/SVG/1.1/DTD/svg11.dtd"><svg class="icon" viewBox="0 0 1024 1024" version="1.1" xmlns="http://www.w3.org/2000/svg" p-id="2744" xmlns:xlink="http://www.w3.org/1999/xlink" width="128" height="128"><defs><style type="text/css"></style></defs><path d="M676.992 750.912l85.312-398.208c5.696-34.112-11.392-51.2-34.112-39.808L233.216 500.608c-34.112 11.392-34.112 34.176-5.632 39.808l125.12 39.872 295.808-182.08c11.392-11.392 28.48-5.696 17.088 5.76L426.688 620.032l-11.392 130.816c11.392 0 17.088-5.696 28.416-11.328l62.592-56.96 125.184 96.768c22.72 5.696 39.808 0 45.44-28.48zM1024 512c0 284.416-227.584 512-512 512s-512-227.584-512-512 227.584-512 512-512 512 233.216 512 512z" fill="#297BDD" p-id="2745"></path></svg>